<svg width="640" height="480" xmlns="http://www.w3.org/2000/svg">
 <!-- Created with SVG-edit - http://svg-edit.googlecode.com/ -->
 <g>
  <title>Layer 1</title>
  <path id="svg_3" d="m431.824188,34.437454c-34.020508,27.507813 -81.046204,27.778442 -115.326385,0.822365c-32.973297,25.94175 -77.749054,26.673485 -111.398209,2.230774l-60.497726,64.983711c37.214218,40.697174 36.997452,106.086777 -0.636505,146.50293c-4.995667,13.799286 -7.614502,13.134552 -8.161118,27.034821c-1.281113,33.454834 6.22377,64.668427 29.732132,88.187408c20.999634,20.997192 49.495422,29.896301 76.870361,26.719788c45.707794,2.533844 67.622406,23.789948 76.820068,36.518188c12.4133,-13.585236 31.71994,-35.437256 90.404144,-38.15274c35.031738,-5.429565 47.695984,-14.215637 64.133392,-30.435852c22.131226,-22.110962 29.866974,-50.159821 29.216797,-81.282745c-0.270386,-12.920441 -1.74585,-17.426331 -9.017303,-33.927597c-37.808319,-40.607941 -37.83667,-106.414154 -0.098511,-147.078667l-62.041138,-62.122383l0,0z" stroke-linecap="null" stroke-linejoin="null" stroke-dasharray="null" stroke-width="5" stroke="#000000" fill="#000000"/>
  <path id="svg_5" d="m314.321381,360.57605c-0.435059,-7.492676 -1.417969,-20.375244 -12.22995,-14.155518c-5.01123,1.861084 -20.044922,6.598389 -12.777893,-3.198486c-3.979889,-9.756592 -20.197968,4.769531 -21.309784,-2.01416c8.717285,-9.35376 -4.205566,-19.650146 -13.341797,-13.011475c-5.615479,1.554932 -17.072021,11.351807 -19.319824,8.241943c5.220703,-6.614502 16.983398,-20.157715 2.803711,-24.218292c-15.412354,-3.496521 -28.94751,7.114044 -42.35376,12.906769c-4.020264,3.14209 -9.13623,2.594238 -4.133057,-2.634521c17.354004,-26.93335 44.585449,-47.211823 74.805908,-57.516235c7.323486,-2.376678 18.610901,-7.645752 18.82843,4.374756c4.52774,11.069763 7.750427,24.902924 19.416504,30.598999c13.438446,7.468506 3.802704,-21.559479 17.724579,-10.594482c5.857147,3.794678 18.393188,-3.440125 20.109253,0.628418c-3.416016,4.882294 -5.01123,13.55127 4.00412,9.095947c15.653992,-6.155273 27.158813,-19.956238 34.86911,-34.482269c8.05661,-1.208496 16.06488,4.89035 23.412537,8.129089c24.387604,13.809052 39.437439,39.904419 45.826416,66.507477c-6.638672,-3.730225 -13.075989,-11.279297 -21.116547,-14.236084c-8.572296,-4.294189 -18.248352,-5.043457 -27.674683,-4.753418c-4.41507,5.260986 -7.025421,11.802979 -3.19046,18.344971c3.343506,12.528076 -10.658905,-4.310303 -15.718475,-5.454346c-9.442444,-6.751465 -18.490021,3.440186 -16.419464,13.027588c-2.13501,1.844971 -8.717255,-3.101807 -12.584412,-2.521729c-7.951843,-2.392822 -13.559265,1.05542 -8.765564,9.32959c-7.017334,-0.854004 -17.273346,-11.674072 -23.476929,-1.490479c-2.707031,2.545898 -4.10083,7.613525 -7.38797,9.095947l0,0z" stroke-linecap="null" stroke-linejoin="null" stroke-dasharray="null" stroke-width="5" stroke="#000000" fill="#0000ff"/>
  <path id="svg_6" d="m374.612793,98.138451c-0.45517,-19.430092 -16.35083,-35.039871 -35.874237,-35.039871c-13.082489,0 -24.47644,6.981575 -30.76474,17.40815c-2.930939,-1.617371 -6.317871,-2.554184 -9.944,-2.554184c-11.271912,0 -20.458221,8.929543 -20.88324,20.127106c-11.849091,3.898209 -20.399323,14.973816 -20.428772,28.151123c0,16.395203 13.29715,29.707535 29.711456,29.707535l0,0l78.605164,0c16.406311,0 29.703461,-13.312332 29.703461,-29.722176c0,-13.055122 -8.42807,-24.086784 -20.125092,-28.077682zm-9.578369,47.90136l-78.605164,0c-10.942871,-0.027191 -19.796082,-8.868393 -19.796082,-19.809036c-0.033569,-9.822266 7.160095,-17.92189 16.56134,-19.463516c1.326691,-0.208572 2.506744,-0.950073 3.260406,-2.05368c0.757446,-1.103699 1.061493,-2.463928 0.812958,-3.77832c-0.143555,-0.72435 -0.240601,-1.419418 -0.240601,-2.101753c0.0336,-6.056709 4.928894,-10.968399 11.002533,-10.985153c3.205292,0 6.047943,1.377678 8.099396,3.626823c1.15036,1.269836 2.902069,1.861504 4.595184,1.526947c1.693115,-0.332855 3.083252,-1.526947 3.685822,-3.112534c3.71933,-9.866837 13.179565,-16.892708 24.328339,-16.892708c14.359375,0.029549 25.959045,11.635712 25.992889,25.988113c0,0.802635 -0.033844,1.617378 -0.122101,2.464561c-0.239899,2.568954 1.512238,4.881393 4.018066,5.348892c9.220123,1.693451 16.228729,9.732147 16.199554,19.417686c-0.029449,10.940636 -8.857666,19.796486 -19.792542,19.823677zm-71.326508,48.038712c0,-5.515656 0.092865,-26.852005 0.092865,-26.898254c0,-2.023834 -1.212952,-3.851852 -3.113068,-4.605835c-1.878204,-0.758331 -4.017853,-0.28862 -5.441559,1.190109c-0.029877,0.031189 -5.134888,5.425186 -10.306824,11.591156c-2.595184,3.113083 -5.197906,6.377213 -7.253662,9.384705c-1.962524,3.217865 -3.714844,5.288345 -3.984253,9.33812c0,8.29747 6.710083,15.005325 14.986786,15.02005c8.284637,-0.014725 15.019714,-6.73938 15.019714,-15.02005zm-20.095245,0.22757c0.450653,-1.725174 5.34906,-8.50824 9.851898,-13.691528c0.12204,-0.136658 0.273529,-0.301178 0.391449,-0.437943c-0.029877,5.574783 -0.063477,11.362228 -0.063477,13.901901c0,2.809235 -2.261688,5.092178 -5.10434,5.106735c-2.717224,-0.014557 -4.953918,-2.174973 -5.075531,-4.879166zm56.693939,-0.22757c0,-5.515656 0.117859,-26.852005 0.117859,-26.881439c0,-2.02594 -1.238647,-3.85582 -3.108215,-4.62265c-1.908752,-0.758331 -4.018921,-0.28862 -5.438507,1.190109c-0.032928,0.04808 -5.138336,5.425186 -10.306793,11.608032c-2.598267,3.081009 -5.201141,6.360336 -7.252594,9.367828c-1.967346,3.217865 -3.719391,5.288345 -3.989471,9.354919c0,8.28067 6.680634,14.988525 14.986786,14.988525c8.280853,0 14.990936,-6.724655 14.990936,-15.005325zm-20.0961,0.240067c0.450836,-1.737671 5.349243,-8.520737 9.8815,-13.689194c0.12207,-0.151489 0.24411,-0.302979 0.362671,-0.438141c-0.029449,5.56015 -0.063171,11.347595 -0.063171,13.887268c0,2.809235 -2.261963,5.092178 -5.075836,5.106735c-2.746674,-0.014557 -4.95285,-2.174973 -5.105164,-4.866669zm54.006744,-31.744156c-1.873993,-0.758331 -4.05188,-0.303436 -5.442017,1.177261c-0.058807,0.044037 -5.133698,5.438034 -10.302216,11.604004c-2.603088,3.097885 -5.202209,6.360321 -7.223511,9.384705c-1.996796,3.217865 -3.748657,5.288345 -4.018921,9.33812c0,8.28067 6.676422,15.005325 14.986969,15.005325c8.281097,0 14.990082,-6.724655 14.990082,-15.005325c0,-5.515656 0.118744,-26.86673 0.118744,-26.898254c0,-2.023834 -1.238647,-3.851852 -3.109131,-4.605835zm-6.890961,31.504089c-0.03299,2.809235 -2.295715,5.092178 -5.108734,5.092178c-2.74649,0 -4.957489,-2.160416 -5.079346,-4.864609c0.454468,-1.725174 5.352692,-8.50824 9.855713,-13.691528c0.121857,-0.136658 0.239685,-0.288147 0.362457,-0.423309c0,5.56015 -0.03009,11.347595 -0.03009,13.887268z" stroke-linecap="null" stroke-linejoin="null" stroke-dasharray="null" stroke-width="5" stroke="#000000" fill="#0000ff"/>
 </g>
</svg>